{
  "accessors": [
    {
      "bufferView": 2,
      "componentType": 5126,
      "count": 2880,
      "max": [
        2.908600091934204,
        0.2093999981880188,
        0.15860000252723694
      ],
      "min": [
        2.0237998962402344,
        0.09309999644756317,
        -0.225600004196167
      ],
      "type": "VEC3"
    },
    {
      "bufferView": 2,
      "byteOffset": 34560,
      "componentType": 5126,
      "count": 2880,
      "type": "VEC3"
    },
    {
      "bufferView": 1,
      "componentType": 5126,
      "count": 2880,
      "type": "VEC2"
    },
    {
      "bufferView": 0,
      "componentType": 5125,
      "count": 14976,
      "type": "SCALAR"
    },
    {
      "bufferView": 2,
      "byteOffset": 69120,
      "componentType": 5126,
      "count": 326,
      "max": [
        6.950300216674805,
        6.470600128173828,
        0.2484000027179718
      ],
      "min": [
        -2.020699977874756,
        0.6628000140190125,
        -0.6783000230789185
      ],
      "type": "VEC3"
    },
    {
      "bufferView": 2,
      "byteOffset": 73032,
      "componentType": 5126,
      "count": 326,
      "type": "VEC3"
    },
    {
      "bufferView": 0,
      "byteOffset": 59904,
      "componentType": 5125,
      "count": 1926,
      "type": "SCALAR"
    },
    {
      "bufferView": 2,
      "byteOffset": 76944,
      "componentType": 5126,
      "count": 250,
      "max": [
        6.8993000984191895,
        0.019700000062584877,
        1.2610000371932983
      ],
      "min": [
        -1.968500018119812,
        -0.019700000062584877,
        -1.2610000371932983
      ],
      "type": "VEC3"
    },
    {
      "bufferView": 2,
      "byteOffset": 79944,
      "componentType": 5126,
      "count": 250,
      "type": "VEC3"
    },
    {
      "bufferView": 1,
      "byteOffset": 23040,
      "componentType": 5126,
      "count": 250,
      "type": "VEC2"
    },
    {
      "bufferView": 0,
      "byteOffset": 67608,
      "componentType": 5125,
      "count": 840,
      "type": "SCALAR"
    },
    {
      "bufferView": 2,
      "byteOffset": 82944,
      "componentType": 5126,
      "count": 2596,
      "max": [
        6.978000164031982,
        0.6628000140190125,
        1.3114999532699585
      ],
      "min": [
        -2.0471999645233154,
        -0.019700000062584877,
        -1.3114999532699585
      ],
      "type": "VEC3"
    },
    {
      "bufferView": 2,
      "byteOffset": 114096,
      "componentType": 5126,
      "count": 2596,
      "type": "VEC3"
    },
    {
      "bufferView": 1,
      "byteOffset": 25040,
      "componentType": 5126,
      "count": 2596,
      "type": "VEC2"
    },
    {
      "bufferView": 0,
      "byteOffset": 70968,
      "componentType": 5125,
      "count": 13524,
      "type": "SCALAR"
    }
  ],
  "asset": {
    "generator": "fab-model-conversion",
    "version": "2.0"
  },
  "bufferViews": [
    {
      "buffer": 0,
      "byteLength": 125064,
      "target": 34963
    },
    {
      "buffer": 0,
      "byteLength": 45808,
      "byteOffset": 125064,
      "byteStride": 8,
      "target": 34962
    },
    {
      "buffer": 0,
      "byteLength": 145248,
      "byteOffset": 170872,
      "byteStride": 12,
      "target": 34962
    }
  ],
  "buffers": [
    {
      "byteLength": 316120,
      "uri": "scene.bin"
    }
  ],
  "extensionsUsed": [
    "KHR_materials_clearcoat",
    "KHR_materials_specular",
    "KHR_materials_transmission"
  ],
  "materials": [
    {
      "doubleSided": true,
      "extensions": {
        "KHR_materials_clearcoat": {
          "clearcoatFactor": 1,
          "clearcoatRoughnessFactor": 0.04
        },
        "KHR_materials_specular": {
          "specularFactor": 1
        }
      },
      "name": "wire_009009009",
      "pbrMetallicRoughness": {
        "baseColorFactor": [
          0.5540790912347202,
          0.1248577355064076,
          0.0,
          1.0
        ],
        "roughnessFactor": 0.6
      }
    },
    {
      "alphaMode": "BLEND",
      "doubleSided": true,
      "extensions": {
        "KHR_materials_specular": {
          "specularFactor": 1
        },
        "KHR_materials_transmission": {
          "transmissionFactor": 0.7595524318753553
        }
      },
      "name": "wire_029029029",
      "pbrMetallicRoughness": {
        "baseColorFactor": [
          0.0,
          0.0,
          0.0,
          0.25
        ],
        "roughnessFactor": 0.6
      }
    },
    {
      "alphaMode": "BLEND",
      "doubleSided": true,
      "extensions": {
        "KHR_materials_clearcoat": {
          "clearcoatFactor": 1,
          "clearcoatRoughnessFactor": 0.04
        }
      },
      "name": "wire_177088027",
      "pbrMetallicRoughness": {
        "baseColorFactor": [
          1.0,
          1.0,
          1.0,
          0.403746713316427
        ],
        "metallicFactor": 0.0,
        "roughnessFactor": 0.6
      }
    }
  ],
  "meshes": [
    {
      "name": "Object_0",
      "primitives": [
        {
          "attributes": {
            "NORMAL": 1,
            "POSITION": 0,
            "TEXCOORD_0": 2
          },
          "indices": 3,
          "material": 2,
          "mode": 4
        }
      ]
    },
    {
      "name": "Object_1",
      "primitives": [
        {
          "attributes": {
            "NORMAL": 5,
            "POSITION": 4
          },
          "indices": 6,
          "material": 1,
          "mode": 4
        }
      ]
    },
    {
      "name": "Object_2",
      "primitives": [
        {
          "attributes": {
            "NORMAL": 8,
            "POSITION": 7,
            "TEXCOORD_0": 9
          },
          "indices": 10,
          "material": 1,
          "mode": 4
        }
      ]
    },
    {
      "name": "Object_3",
      "primitives": [
        {
          "attributes": {
            "NORMAL": 12,
            "POSITION": 11,
            "TEXCOORD_0": 13
          },
          "indices": 14,
          "material": 0,
          "mode": 4
        }
      ]
    }
  ],
  "nodes": [
    {
      "children": [
        1
      ],
      "matrix": [
        1.0,
        0.0,
        0.0,
        0.0,
        0.0,
        2.220446049250313e-16,
        -1.0,
        0.0,
        0.0,
        1.0,
        2.220446049250313e-16,
        0.0,
        0.0,
        0.0,
        0.0,
        1.0
      ],
      "name": "Sketchfab_model"
    },
    {
      "children": [
        2,
        3,
        4,
        5
      ],
      "name": "glasses OBJ 2.obj.cleaner.materialmerger.gles"
    },
    {
      "mesh": 0,
      "name": "Object_2"
    },
    {
      "mesh": 1,
      "name": "Object_3"
    },
    {
      "mesh": 2,
      "name": "Object_4"
    },
    {
      "mesh": 3,
      "name": "Object_5"
    }
  ],
  "scene": 0,
  "scenes": [
    {
      "name": "Sketchfab_Scene",
      "nodes": [
        0
      ]
    }
  ]
}
